HIERARCHY
ROOT Hips
{
	OFFSET 2.298212 67.878815 0.000000
	CHANNELS 6 Xposition Yposition Zposition Xrotation Yrotation Zrotation
	JOINT Bip01_Pelvis
	{
		OFFSET 0.000000 0.000000 -0.000000
		CHANNELS 3 Xrotation Yrotation Zrotation
		JOINT BN_Tail_01
		{
			OFFSET -6.899146 3.499413 0.000000
			CHANNELS 3 Xrotation Yrotation Zrotation
			JOINT BN_Tail_02
			{
				OFFSET -11.097242 -3.005508 0.000022
				CHANNELS 3 Xrotation Yrotation Zrotation
				JOINT BN_Tail_03
				{
					OFFSET -10.095407 -5.779785 0.000033
					CHANNELS 3 Xrotation Yrotation Zrotation
					JOINT BN_Tail_04
					{
						OFFSET -5.548622 -8.631191 0.000030
						CHANNELS 3 Xrotation Yrotation Zrotation
						End Site
						{
							OFFSET 10.166740 -1.386387 -0.000010
						}
					}
				}
			}
		}
		JOINT Bip01_Spine
		{
			OFFSET 6.029028 0.007965 -0.000005
			CHANNELS 3 Xrotation Yrotation Zrotation
			JOINT Bip01_R_Thigh
			{
				OFFSET -6.029011 -0.007935 10.812546
				CHANNELS 3 Xrotation Yrotation Zrotation
				JOINT Bip01_R_Calf
				{
					OFFSET 6.571476 -15.794937 1.781280
					CHANNELS 3 Xrotation Yrotation Zrotation
					JOINT Bip01_R_HorseLink
					{
						OFFSET -14.139996 -16.872330 -4.939990
						CHANNELS 3 Xrotation Yrotation Zrotation
						JOINT Bip01_R_Foot
						{
							OFFSET 3.770021 -26.265705 0.647395
							CHANNELS 3 Xrotation Yrotation Zrotation
							JOINT Bip01_R_Toe1
							{
								OFFSET 3.788088 -6.546797 -0.241568
								CHANNELS 3 Xrotation Yrotation Zrotation
								JOINT Bip01_R_Toe11
								{
									OFFSET 7.421610 -1.353832 -0.000004
									CHANNELS 3 Xrotation Yrotation Zrotation
									JOINT Bip01_R_Toe1Nub
									{
										OFFSET 8.832827 -1.611263 -0.000004
										CHANNELS 3 Xrotation Yrotation Zrotation
										End Site
										{
											OFFSET 1.611267 8.832824 -0.000016
										}
									}
								}
							}
							JOINT Bip01_R_Toe0
							{
								OFFSET 1.507501 -6.014594 2.822071
								CHANNELS 3 Xrotation Yrotation Zrotation
								JOINT Bip01_R_Toe01
								{
									OFFSET 5.007060 -1.569916 3.080155
									CHANNELS 3 Xrotation Yrotation Zrotation
									JOINT Bip01_R_Toe0Nub
									{
										OFFSET 4.871449 -1.527396 2.996733
										CHANNELS 3 Xrotation Yrotation Zrotation
										End Site
										{
											OFFSET 1.300957 5.719387 0.800289
										}
									}
								}
							}
						}
					}
				}
			}
			JOINT Bip01_L_Thigh
			{
				OFFSET -6.029045 -0.007973 -10.812530
				CHANNELS 3 Xrotation Yrotation Zrotation
				JOINT Bip01_L_Calf
				{
					OFFSET 6.571461 -15.794945 -1.781260
					CHANNELS 3 Xrotation Yrotation Zrotation
					JOINT Bip01_L_HorseLink
					{
						OFFSET -14.139986 -16.872318 4.940070
						CHANNELS 3 Xrotation Yrotation Zrotation
						JOINT Bip01_L_Foot
						{
							OFFSET 3.769989 -26.265713 -0.647333
							CHANNELS 3 Xrotation Yrotation Zrotation
							JOINT Bip01_L_Toe1
							{
								OFFSET 3.788085 -6.546793 0.241581
								CHANNELS 3 Xrotation Yrotation Zrotation
								JOINT Bip01_L_Toe11
								{
									OFFSET 7.421610 -1.353837 -0.000007
									CHANNELS 3 Xrotation Yrotation Zrotation
									JOINT Bip01_L_Toe1Nub
									{
										OFFSET 8.832822 -1.611264 -0.000008
										CHANNELS 3 Xrotation Yrotation Zrotation
										End Site
										{
											OFFSET -1.611261 -8.832818 0.000007
										}
									}
								}
							}
							JOINT Bip01_L_Toe0
							{
								OFFSET 1.507489 -6.014597 -2.822060
								CHANNELS 3 Xrotation Yrotation Zrotation
								JOINT Bip01_L_Toe01
								{
									OFFSET 5.007050 -1.569929 -3.080164
									CHANNELS 3 Xrotation Yrotation Zrotation
									JOINT Bip01_L_Toe0Nub
									{
										OFFSET 4.871441 -1.527405 -2.996738
										CHANNELS 3 Xrotation Yrotation Zrotation
										End Site
										{
											OFFSET -1.300957 -5.719383 0.800304
										}
									}
								}
							}
						}
					}
				}
			}
			JOINT Bip01_Spine1
			{
				OFFSET 10.002218 -0.753799 -0.000015
				CHANNELS 3 Xrotation Yrotation Zrotation
				JOINT BN_Forearm_L_01
				{
					OFFSET 5.919939 -1.360497 -7.682490
					CHANNELS 3 Xrotation Yrotation Zrotation
					JOINT BN_Forearm_L_02
					{
						OFFSET -5.353483 2.809502 -11.572657
						CHANNELS 3 Xrotation Yrotation Zrotation
						JOINT BN_Forearm_L_03
						{
							OFFSET -0.991812 -5.662376 -20.602930
							CHANNELS 3 Xrotation Yrotation Zrotation
							JOINT BN_Forearm_L_07
							{
								OFFSET -7.168705 7.834190 -1.155437
								CHANNELS 3 Xrotation Yrotation Zrotation
								JOINT BN_Forearm_L_08
								{
									OFFSET -11.939425 -6.105667 -15.651306
									CHANNELS 3 Xrotation Yrotation Zrotation
									End Site
									{
										OFFSET -14.576792 13.310867 5.927078
									}
								}
							}
							JOINT BN_Forearm_L_05
							{
								OFFSET 4.369921 -3.880672 1.679504
								CHANNELS 3 Xrotation Yrotation Zrotation
								JOINT BN_Forearm_L_06
								{
									OFFSET 0.215588 -15.759068 -13.281502
									CHANNELS 3 Xrotation Yrotation Zrotation
									End Site
									{
										OFFSET -9.450302 11.727943 -14.069126
									}
								}
							}
							JOINT BN_Forearm_L_04
							{
								OFFSET -6.331198 -8.406956 -17.720940
								CHANNELS 3 Xrotation Yrotation Zrotation
								End Site
								{
									OFFSET -8.360548 9.136719 -1.347553
								}
							}
						}
					}
				}
				JOINT BN_Forearm_R_01
				{
					OFFSET 5.919971 -1.360451 7.682717
					CHANNELS 3 Xrotation Yrotation Zrotation
					JOINT BN_Forearm_R_02
					{
						OFFSET -5.353445 2.809563 11.572668
						CHANNELS 3 Xrotation Yrotation Zrotation
						JOINT BN_Forearm_R_03
						{
							OFFSET -0.991760 -5.662262 20.602953
							CHANNELS 3 Xrotation Yrotation Zrotation
							JOINT BN_Forearm_R_07
							{
								OFFSET -7.168681 7.834183 1.155418
								CHANNELS 3 Xrotation Yrotation Zrotation
								JOINT BN_Forearm_R_08
								{
									OFFSET -11.939366 -6.105583 15.651413
									CHANNELS 3 Xrotation Yrotation Zrotation
									End Site
									{
										OFFSET 14.576847 -13.310833 5.927101
									}
								}
							}
							JOINT BN_Forearm_R_05
							{
								OFFSET 4.369925 -3.880692 -1.679527
								CHANNELS 3 Xrotation Yrotation Zrotation
								JOINT BN_Forearm_R_06
								{
									OFFSET 0.215656 -15.758995 13.281578
									CHANNELS 3 Xrotation Yrotation Zrotation
									End Site
									{
										OFFSET 9.450270 -11.728004 -14.069077
									}
								}
							}
							JOINT BN_Forearm_R_04
							{
								OFFSET -6.331113 -8.406864 17.721020
								CHANNELS 3 Xrotation Yrotation Zrotation
								End Site
								{
									OFFSET 8.360539 -9.136719 -1.347530
								}
							}
						}
					}
				}
				JOINT Bip01_Neck
				{
					OFFSET 9.877300 1.694740 -0.000023
					CHANNELS 3 Xrotation Yrotation Zrotation
					JOINT Bip01_Neck1
					{
						OFFSET 2.668684 8.053459 -0.000013
						CHANNELS 3 Xrotation Yrotation Zrotation
						JOINT Bip01_Neck2
						{
							OFFSET -1.620844 8.097382 -0.000006
							CHANNELS 3 Xrotation Yrotation Zrotation
							JOINT Bip01_Neck3
							{
								OFFSET -4.366737 7.438797 0.000001
								CHANNELS 3 Xrotation Yrotation Zrotation
								JOINT Bip01_Neck4
								{
									OFFSET -3.400084 8.587135 0.000002
									CHANNELS 3 Xrotation Yrotation Zrotation
									JOINT Bip01_Head
									{
										OFFSET 0.270100 8.878807 -0.000004
										CHANNELS 3 Xrotation Yrotation Zrotation
										JOINT BN_Eye_L_01
										{
											OFFSET 4.145815 5.134621 -1.911167
											CHANNELS 3 Xrotation Yrotation Zrotation
											End Site
											{
												OFFSET 1.795364 -5.702621 -2.593221
											}
										}
										JOINT BN_Eye_R_01
										{
											OFFSET 4.145830 5.134628 1.910949
											CHANNELS 3 Xrotation Yrotation Zrotation
											End Site
											{
												OFFSET 1.795376 -5.702614 2.593231
											}
										}
										JOINT BN_Mouth_01
										{
											OFFSET 2.275660 2.336296 -0.000057
											CHANNELS 3 Xrotation Yrotation Zrotation
											End Site
											{
												OFFSET 1.292419 6.387306 -0.000016
											}
										}
										JOINT Bip01_HeadNub
										{
											OFFSET 1.617138 8.919075 -0.000006
											CHANNELS 3 Xrotation Yrotation Zrotation
											End Site
											{
												OFFSET 6.412201 -1.162621 0.000003
											}
										}
									}
								}
							}
						}
					}
				}
			}
		}
	}
}
MOTION
Frames: 7
Frame Time: 0.033333
2.722939 62.884167 0.840784 -0.946643 0.835755 -7.838285 0.003491 -0.000000 -0.000007 0.559124 -4.960459 -8.713944 0.940626 -5.021034 -19.183667 2.277715 -4.373451 -29.773341 4.288009 -2.777463 -25.191544 -0.207269 1.104131 12.061861 -8.756974 6.697865 -1.629177 5.576616 -0.469672 -17.323257 0.551028 0.028917 -1.702627 9.619480 -14.812667 6.844399 -0.814844 1.357364 12.507173 0.000006 0.000013 7.349085 0.000000 0.000002 0.000001 -6.730897 0.948028 10.968169 -0.586336 -0.004869 0.953182 0.000000 0.000001 -0.000003 11.131313 -5.046791 7.244023 -2.705534 0.015457 -8.356035 6.266598 1.543632 19.948283 -5.171388 23.071220 -25.317913 -0.027428 -1.431274 1.813244 0.000007 0.000008 8.365640 0.000028 -0.000027 0.039536 0.163878 -1.430900 1.761609 3.782715 0.203498 6.156544 0.020776 -0.000034 0.033686 0.114150 1.496870 -1.102026 13.685200 27.116474 -8.026364 27.507644 22.427025 -5.147142 6.091942 -28.478235 -11.454046 17.368421 20.130687 -14.214329 14.838548 -34.649475 -14.889257 -17.463105 -0.000887 5.874729 22.036963 -12.024300 31.690831 24.070579 -16.755221 13.851603 -10.675092 -24.275966 -7.317427 -27.290516 -21.770439 -7.567414 -6.029387 28.527322 -11.605660 -16.812092 -19.512104 -13.558901 -14.953285 34.747126 -14.894699 17.533579 0.077000 5.899003 -22.104635 12.084123 31.860558 -24.200655 16.842780 13.901470 3.567313 -1.111394 -17.352867 -5.000168 3.083990 15.314034 -6.354275 -2.036437 30.871164 -2.812049 -1.200297 12.596225 -1.892044 -0.230549 7.997305 1.359208 -2.150028 -50.459013 7.557756 1.975712 0.898839 -7.556512 -1.975591 0.901939 0.021445 0.023733 16.467103 -0.000001 0.000000 -0.000001 
3.589342 61.545166 1.109739 -2.414151 0.766621 -11.338451 0.003491 -0.000000 -0.000007 0.593224 -4.622123 -7.831533 0.998381 -4.972919 -18.459875 2.107520 -3.924058 -29.059637 4.234652 -2.788851 -25.587992 -0.084651 -0.066375 8.833905 -8.230135 6.781748 5.641839 6.357960 -0.674860 -19.807991 0.183514 0.011487 -0.567324 9.553672 -14.178047 7.760424 -0.834651 0.940044 13.752617 0.000006 0.000013 7.349247 0.000001 0.000003 0.000001 -5.384204 0.458319 12.523038 -0.586338 -0.004878 0.953179 -0.000002 0.000001 -0.000002 14.820061 -3.414531 16.197746 -4.916735 0.324202 -15.242776 7.381462 2.079695 23.728933 -5.540178 24.726803 -24.076690 -0.037891 -1.611260 2.198819 0.000005 0.000005 6.098429 0.000028 -0.000025 0.039536 0.658445 -1.598785 2.020159 2.589418 0.095235 4.211726 0.020776 -0.000035 0.033687 0.074831 0.981495 -5.483900 6.527640 30.491016 -4.425403 20.408781 25.843848 1.575081 2.649878 -23.540911 -9.370126 15.303447 17.961133 -11.576018 13.595336 -30.676002 -14.797659 -14.405782 1.591325 4.917337 19.640679 -12.011486 28.204916 20.674578 -14.511446 12.420557 -3.149560 -27.746248 -4.068195 -20.023429 -24.221852 -4.309735 -2.479042 23.693477 -9.806657 -13.632249 -15.886737 -9.478505 -13.935845 30.977777 -14.824763 14.613111 -1.371919 5.009407 -19.843084 12.209645 28.709170 -21.058534 14.779770 12.553387 3.759446 0.653730 -26.168128 -2.897879 2.750343 2.065196 -6.856335 -1.667032 23.878948 -3.183148 -1.606815 31.886694 -2.117568 -0.493515 14.912986 -0.609914 -3.985701 -45.987233 7.434058 1.942150 0.886214 -7.432351 -1.942108 0.889286 0.021322 0.023752 16.505813 0.000001 -0.000000 0.000001 
4.418741 60.816143 1.282140 -3.997305 0.739555 -14.454775 0.003490 0.000000 -0.000009 0.596279 -4.158052 -6.985042 1.071742 -4.886965 -17.426861 1.868443 -3.336902 -28.058340 4.163121 -2.768567 -25.850856 -0.030939 -1.325826 5.233481 -7.095949 7.454783 11.494316 6.325378 -0.665575 -19.703834 0.140871 0.008986 -0.435518 9.523247 -13.641839 8.628928 -0.857573 0.408249 14.726578 0.000006 0.000012 7.349411 0.000000 0.000002 -0.000000 -4.174111 -0.099076 13.796825 -0.586336 -0.004873 0.953180 -0.000001 0.000004 -0.000002 17.640905 -1.351416 22.182395 -5.906487 0.551870 -18.368986 8.212588 2.540572 26.626068 -6.126621 25.673467 -21.900368 -0.040733 -1.066150 1.761189 0.000003 0.000003 3.272528 0.000028 -0.000027 0.039536 1.279113 -1.071034 1.408941 1.098542 0.017126 1.786004 0.020774 -0.000035 0.033687 0.032563 0.427324 -10.536830 0.084765 32.356013 -1.213163 11.407619 29.126720 8.415814 -1.144867 -17.150588 -6.570177 12.849973 15.134284 -8.254116 12.521227 -25.583189 -14.092774 -10.645200 3.314914 3.457374 16.376014 -12.171695 23.573341 16.468124 -11.543697 10.867710 4.213761 -29.672237 -0.998118 -11.033529 -26.469777 -1.160065 1.382889 17.389028 -7.195038 -10.211911 -11.422586 -4.646969 -12.894355 25.948678 -14.151074 10.963517 -2.998047 3.611830 -16.610684 12.428396 24.152766 -16.906458 11.864759 11.000371 4.117394 2.381478 -34.719259 -0.967083 1.910987 -11.038433 -7.188180 -1.216784 15.444244 -3.357474 -2.008841 43.925414 -2.302111 -0.780659 21.406327 -2.885529 -5.301973 -32.608727 7.056123 1.840653 0.847311 -7.054038 -1.840240 0.850312 0.022351 0.023574 16.453955 -0.000000 -0.000000 -0.000001 
5.141936 60.527119 1.403901 -5.300163 0.804762 -16.673906 0.003492 -0.000000 -0.000006 0.572985 -3.663442 -6.257628 1.138003 -4.739464 -16.269302 1.606372 -2.756212 -26.968913 4.083387 -2.731941 -25.992719 -0.052280 -2.388256 2.008075 -5.956079 8.469582 15.469149 5.889677 -0.547538 -18.315770 0.259255 0.015672 -0.801373 9.495940 -13.372877 9.162198 -0.881915 -0.042068 15.484654 0.000006 0.000012 7.349575 0.000001 0.000003 0.000001 -3.352576 -0.554324 14.757986 -0.586338 -0.004885 0.953178 -0.000001 -0.000001 -0.000002 19.482623 0.582568 25.685066 -6.178569 0.624527 -19.235039 8.735909 2.859785 28.491239 -6.688519 26.065744 -19.770606 -0.019123 -0.355714 1.042396 0.000001 0.000000 1.028159 0.000028 -0.000027 0.039534 1.801737 -0.391113 0.540016 -0.086155 0.000115 -0.140004 0.020774 -0.000037 0.033687 -0.006592 -0.086089 -15.028991 -4.405703 33.117624 1.019881 3.331596 31.822336 13.597138 -4.175658 -11.537152 -3.793441 10.751597 12.434236 -5.204491 11.444578 -20.600242 -13.327904 -7.457526 4.466746 1.878708 13.170653 -12.079049 19.029646 12.461357 -8.535173 9.576291 9.774809 -30.312677 1.480349 -3.112889 -28.358633 1.107921 4.371757 11.761393 -4.327341 -7.703862 -7.688695 -0.704942 -11.852221 21.027277 -13.419750 7.743267 -4.194656 2.031870 -13.431333 12.399583 19.678250 -12.951844 8.909107 9.702626 4.583344 3.951321 -42.510322 0.581734 0.730097 -23.208440 -7.330320 -0.700564 3.480562 -3.329830 -2.148933 34.076169 -2.437329 -1.069648 27.122176 -2.572824 -9.327999 3.655505 6.685461 1.741415 0.808549 -6.683102 -1.740624 0.811448 0.023369 0.023381 16.403169 0.000000 0.000000 -0.000003 
5.732669 60.490929 1.528171 -5.991618 0.967177 -17.622977 0.003491 -0.000000 -0.000009 0.533734 -3.203731 -5.689348 1.201870 -4.589179 -15.100708 1.387467 -2.280024 -25.916535 3.927030 -2.631790 -26.041804 -0.102061 -3.034346 -0.293396 -5.177875 9.290697 17.291876 5.415657 -0.431862 -16.814389 0.377476 0.021594 -1.166626 9.445123 -13.446657 9.090395 -0.888991 -0.243329 16.169932 0.000006 0.000013 7.349740 0.000000 0.000001 0.000001 -3.054129 -0.768403 15.520941 -0.586335 -0.004871 0.953182 -0.000001 0.000004 -0.000002 20.402393 1.859130 27.436745 -6.195513 0.629188 -19.289042 8.939127 2.990138 29.225075 -7.115718 26.199069 -18.499209 -0.000118 0.000011 0.629592 0.000000 0.000001 0.157368 0.000027 -0.000027 0.039535 2.010560 -0.059728 0.059752 -0.544233 0.004211 -0.884667 0.020777 -0.000033 0.033687 -0.038765 -0.507945 -17.998807 -6.194929 33.283563 2.026567 -1.340548 34.035150 15.967469 -5.623992 -8.780440 -1.763711 9.431697 10.559013 -3.170029 10.828792 -17.340291 -12.018640 -5.966742 4.538615 0.681075 10.538075 -12.415141 15.307840 9.656777 -6.357188 8.811277 12.398848 -30.233716 3.314312 1.405457 -30.206529 2.248466 5.623978 8.780474 -1.763762 -6.720227 -6.096693 0.967405 -10.828891 17.340189 -12.018679 5.966757 -4.538633 0.681009 -10.629642 12.495788 15.291641 -9.656766 6.357239 8.811239 4.772077 5.037263 -46.321465 1.415770 -0.272100 -31.112208 -6.879944 -0.145041 -6.320860 -3.183577 -2.082288 20.239563 -2.456259 -1.313351 29.827303 0.776386 -12.227760 33.947123 6.311064 1.641420 0.768736 -6.308438 -1.640276 0.771556 0.024399 0.023200 16.351859 0.000001 0.000000 -0.000003 
6.243843 60.637531 1.664515 -6.155959 1.204912 -17.511442 0.003491 0.000000 -0.000007 0.483907 -2.761670 -5.210123 1.224972 -4.321494 -13.942711 1.192840 -1.885290 -24.931862 3.713041 -2.485073 -26.001009 -0.143286 -3.318078 -1.803543 -4.731988 9.708950 17.501448 5.033346 -0.348089 -15.609487 0.455177 0.025078 -1.406624 9.378656 -13.705046 8.600950 -0.887051 -0.254265 16.937727 0.000008 0.000024 7.349902 0.000000 0.000002 0.000001 -2.991893 -0.791547 16.167358 -0.586334 -0.004873 0.953181 -0.000000 0.000006 -0.000001 20.644691 2.433744 27.991430 -6.086194 0.599359 -18.940623 8.899439 2.964393 29.081310 -7.440817 26.205216 -18.029871 -0.000118 0.000010 0.695292 0.000002 0.000011 0.157751 0.000028 -0.000028 0.039535 1.998890 -0.054505 0.129499 -0.544232 0.004213 -0.884668 0.020776 -0.000035 0.033687 -0.066238 -0.868195 -19.652829 -6.319730 33.235933 2.384362 -3.289319 35.919763 16.509260 -6.025807 -8.437499 -0.482976 8.739141 9.503442 -2.085087 10.320242 -15.782603 -10.177161 -5.929948 3.863903 -0.280246 8.451926 -13.298166 12.020705 8.030021 -5.063628 8.441465 12.967549 -29.631543 4.763131 2.913865 -32.050461 2.292055 5.667725 7.973781 0.554659 -6.819958 -6.270050 0.805307 -9.392553 14.655783 -10.037637 5.609004 -4.199712 -0.535094 -7.796711 12.381991 10.854291 -6.720273 4.003430 8.172941 4.504329 5.409876 -44.146436 1.576012 -0.562884 -32.824062 -5.861033 0.464880 -9.624729 -2.969408 -1.875047 16.955251 -2.390246 -1.482077 28.694830 1.545851 -11.525694 37.008677 5.932944 1.540704 0.727890 -5.929973 -1.539191 0.730612 0.025429 0.023003 16.300014 0.000000 0.000000 -0.000003 
6.738784 60.973129 1.786556 -6.147142 1.457043 -16.939629 0.003491 -0.000000 -0.000006 0.420989 -2.288421 -4.724960 1.206188 -3.937310 -12.741620 0.972515 -1.483638 -23.955167 3.405203 -2.265350 -25.875480 -0.180960 -3.479415 -3.096212 -4.287689 9.985623 16.793506 4.456986 -0.237577 -13.801724 0.666536 0.032894 -2.059285 9.292420 -13.927669 8.092301 -0.884838 -0.265697 17.784465 0.000006 0.000015 7.350095 0.000000 0.000001 -0.000000 -2.836557 -0.787639 16.684168 -0.586335 -0.004873 0.953181 -0.000001 0.000002 -0.000003 20.508796 2.682083 27.689476 -5.730935 0.507324 -17.811834 8.727566 2.854523 28.461265 -7.749545 26.023634 -17.715453 -0.000118 0.000009 0.858540 0.000000 -0.000001 0.158133 0.000028 -0.000026 0.039536 1.959228 -0.047621 0.304579 -0.544233 0.004216 -0.884670 0.020777 -0.000039 0.033687 -0.093068 -1.219920 -20.945974 -6.337736 33.156829 2.785064 -4.986138 37.555925 17.001594 -6.524545 -8.439719 0.568779 8.229492 8.693747 -1.272839 9.749752 -14.861754 -7.825924 -6.195315 3.169648 -1.457601 6.351037 -14.049223 8.756483 6.445763 -3.785627 8.115262 13.156586 -28.520464 6.045080 3.631811 -33.696772 1.568206 5.726825 7.347964 2.951278 -7.078265 -6.720820 0.388986 -7.908149 12.071523 -8.050604 5.787306 -3.702121 -1.957703 -4.488250 12.238565 5.715492 -3.872217 1.666960 7.665969 4.177977 5.728431 -40.988710 1.685929 -0.782965 -34.085175 -4.729199 1.085690 -12.620018 -2.785627 -1.632654 14.280809 -2.366147 -1.655800 27.096897 1.959012 -10.725371 37.047212 5.562106 1.442246 0.687181 -5.558886 -1.440354 0.689800 0.026459 0.022833 16.249213 0.000000 0.000001 -0.000004 
